<?xml version="1.0" encoding="UTF-8" standalone="no"?><!DOCTYPE svg PUBLIC "-//W3C//DTD SVG 1.1//EN" "http://www.w3.org/Graphics/SVG/1.1/DTD/svg11.dtd"><!-- Generated by graphviz version 2.40.1 (20161225.0304)
 --><!-- Title: %0 Pages: 1 --><svg xmlns="http://www.w3.org/2000/svg" xmlns:xlink="http://www.w3.org/1999/xlink" width="296pt" height="188pt" viewBox="0.00 0.00 295.69 188.00">
<g id="graph0" class="graph" transform="scale(1 1) rotate(0) translate(4 184)">
<title>%0</title>
<polygon fill="#ffffff" stroke="transparent" points="-4,4 -4,-184 291.6904,-184 291.6904,4 -4,4"/>
<!-- FeatureExample -->
<g id="node1" class="node">
<title>FeatureExample</title>
<ellipse fill="none" stroke="#000000" cx="74.3175" cy="-162" rx="74.1354" ry="18"/>
<text text-anchor="middle" x="74.3175" y="-157.8" font-family="Times,serif" font-size="14.00" fill="#000000">FeatureExample</text>
</g>
<!-- Feature -->
<g id="node3" class="node">
<title>Feature</title>
<ellipse fill="none" stroke="#000000" cx="87.3175" cy="-90" rx="39.9838" ry="18"/>
<text text-anchor="middle" x="87.3175" y="-85.8" font-family="Times,serif" font-size="14.00" fill="#000000">Feature</text>
</g>
<!-- FeatureExample&#45;&gt;Feature -->
<g id="edge1" class="edge">
<title>FeatureExample-&gt;Feature</title>
<path fill="none" stroke="#000000" d="M77.5979,-143.8314C78.9883,-136.131 80.6416,-126.9743 82.1867,-118.4166"/>
<polygon fill="#000000" stroke="#000000" points="85.6603,-118.8761 83.9929,-108.4133 78.7717,-117.6322 85.6603,-118.8761"/>
</g>
<!-- FeatureTesting -->
<g id="node4" class="node">
<title>FeatureTesting</title>
<ellipse fill="none" stroke="#000000" cx="214.3175" cy="-90" rx="68.9158" ry="18"/>
<text text-anchor="middle" x="214.3175" y="-85.8" font-family="Times,serif" font-size="14.00" fill="#000000">FeatureTesting</text>
</g>
<!-- FeatureExample&#45;&gt;FeatureTesting -->
<g id="edge2" class="edge">
<title>FeatureExample-&gt;FeatureTesting</title>
<path fill="none" stroke="#000000" d="M106.0857,-145.6621C126.1335,-135.3518 152.2166,-121.9376 173.7539,-110.8613"/>
<polygon fill="#000000" stroke="#000000" points="175.3829,-113.9593 182.6751,-106.2733 172.1814,-107.7343 175.3829,-113.9593"/>
</g>
<!-- FeatureInterface -->
<g id="node2" class="node">
<title>FeatureInterface</title>
<ellipse fill="none" stroke="#000000" cx="150.3175" cy="-18" rx="74.0911" ry="18"/>
<text text-anchor="middle" x="150.3175" y="-13.8" font-family="Times,serif" font-size="14.00" fill="#000000">FeatureInterface</text>
</g>
<!-- Feature&#45;&gt;FeatureInterface -->
<g id="edge6" class="edge">
<title>Feature-&gt;FeatureInterface</title>
<path fill="none" stroke="#000000" d="M102.2476,-72.937C109.9997,-64.0775 119.6234,-53.0789 128.219,-43.2554"/>
<polygon fill="#000000" stroke="#000000" points="130.8856,-45.523 134.8366,-35.6924 125.6175,-40.9134 130.8856,-45.523"/>
</g>
<!-- FeatureTesting&#45;&gt;FeatureInterface -->
<g id="edge5" class="edge">
<title>FeatureTesting-&gt;FeatureInterface</title>
<path fill="none" stroke="#000000" d="M198.4973,-72.2022C190.8049,-63.5483 181.4197,-52.99 172.9831,-43.4988"/>
<polygon fill="#000000" stroke="#000000" points="175.4372,-40.9914 166.1775,-35.8425 170.2053,-45.6419 175.4372,-40.9914"/>
</g>
<!-- FeatureTests -->
<g id="node5" class="node">
<title>FeatureTests</title>
<ellipse fill="none" stroke="#000000" cx="227.3175" cy="-162" rx="60.246" ry="18"/>
<text text-anchor="middle" x="227.3175" y="-157.8" font-family="Times,serif" font-size="14.00" fill="#000000">FeatureTests</text>
</g>
<!-- FeatureTests&#45;&gt;Feature -->
<g id="edge3" class="edge">
<title>FeatureTests-&gt;Feature</title>
<path fill="none" stroke="#000000" d="M196.9396,-146.3771C175.1696,-135.1811 145.776,-120.0644 122.9059,-108.3026"/>
<polygon fill="#000000" stroke="#000000" points="124.355,-105.1122 113.8614,-103.6511 121.1535,-111.3372 124.355,-105.1122"/>
</g>
<!-- FeatureTests&#45;&gt;FeatureTesting -->
<g id="edge4" class="edge">
<title>FeatureTests-&gt;FeatureTesting</title>
<path fill="none" stroke="#000000" d="M224.0371,-143.8314C222.6467,-136.131 220.9934,-126.9743 219.4483,-118.4166"/>
<polygon fill="#000000" stroke="#000000" points="222.8633,-117.6322 217.6421,-108.4133 215.9747,-118.8761 222.8633,-117.6322"/>
</g>
</g>
</svg>